In the Land of Blood and Honey 2011 VODRip AC3-5.1 StoneBoyTony


During the Bosnian War, Danijel, a soldier fighting for the Serbs, re-encounters Ajla, a Bosnian who's now a captive in his camp he oversees. Their once promising connection has become ambiguous as their motives have changed. 



Genre: Drama | Romance | War 

Director: Angelina Jolie

Writer: Angelina Jolie

Stars: Zana Marjanovic, Goran Kostic and Rade Serbedzija  



General

Unique ID                        : 0
Complete name                    : In the Land of Blood and Honey 2011 VODRip StoneBoyTony.mkv
Format                           : Matroska
Format version                   : Version 2
File size                        : 1 010 MiB
Duration                         : 2h 7mn
Overall bit rate                 : 1 107 Kbps
Movie name                       : In the Land of Blood and Honey 2011 VODRip StoneBoyTony
Encoded date                     : UTC 2012-02-28 20:03:23
Writing application              : mkvmerge v5.3.0 ('I could have danced') built on Feb  9 2012 10:38:07
Writing library                  : libebml v1.2.3 + libmatroska v1.3.0

Video

ID                               : 1
Format                           : AVC
Format/Info                      : Advanced Video Codec
Format profile                   : High@L5.0
Format settings, CABAC           : Yes
Format settings, ReFrames        : 7 frames
Muxing mode                      : Header stripping
Codec ID                         : V_MPEG4/ISO/AVC
Duration                         : 2h 7mn
Bit rate                         : 701 Kbps
Width                            : 720 pixels
Height                           : 304 pixels
Display aspect ratio             : 2.35:1
Frame rate                       : 23.976 fps
Color space                      : YUV
Chroma subsampling               : 4:2:0
Bit depth                        : 8 bits
Scan type                        : Progressive
Bits/(Pixel*Frame)               : 0.134
Stream size                      : 640 MiB (63%)
Title                            : Encoded by StoneBoyTony
Writing library                  : x264 core 120 r2164 da19765
Language                         : English
Default                          : Yes
Forced                           : No

Audio

ID                               : 2
Format                           : AC-3
Format/Info                      : Audio Coding 3
Mode extension                   : CM (complete main)
Muxing mode                      : Header stripping
Codec ID                         : A_AC3
Duration                         : 2h 7mn
Bit rate mode                    : Constant
Bit rate                         : 384 Kbps
Channel(s)                       : 6 channels
Channel positions                : Front: L C R, Side: L R, LFE
Sampling rate                    : 48.0 KHz
Bit depth                        : 16 bits
Compression mode                 : Lossy
Stream size                      : 350 MiB (35%)
Title                            : Encoded by StoneBoyTony
Language                         : English
Default                          : Yes
Forced                           : No


Screenshots

 
http://img826.imageshack.us/img826/1003/inthelandofbloodandhone.png 
http://img840.imageshack.us/img840/1003/inthelandofbloodandhone.png 
http://img62.imageshack.us/img62/1003/inthelandofbloodandhone.png 
http://img404.imageshack.us/img404/1003/inthelandofbloodandhone.png 
http://img535.imageshack.us/img535/1003/inthelandofbloodandhone.png 
http://img33.imageshack.us/img33/1003/inthelandofbloodandhone.png 
http://img808.imageshack.us/img808/1003/inthelandofbloodandhone.png 
http://img714.imageshack.us/img714/1003/inthelandofbloodandhone.png 
http://img689.imageshack.us/img689/1003/inthelandofbloodandhone.png 
http://img714.imageshack.us/img714/2185/inthelandofbloodandhoneu.png

Source: PA [thanks!]

BiG THANKS to T00NG0D, IMAGINE, ELEKTRI4KA, ILLUMINATI, DTRG, P76, ETRG, NOGRP, INFERNO, INSPiRAL, SiC, PA, YeFsTe, MrRep and everyone in the struggle

Sample is Included

Have problems to play the file on your PC use VLC Media Player it's free:
 
http://www.videolan.org/vlc/

Want to convert in DVD use ConvertXtoDVD
 
http://www.vso-software.fr/products/convert_x_to_dvd/

Want to convert in any file (xbox,psp,PS3 etc) use Aiseesoft Total Media Converter:
 
http://www.aiseesoft.com/total-media-converter.html

I did my best the rest is yours :D


Want to visit my other uploads?
  
http://www.kat.ph/user/StoneBoyTony/uploads/  
http://thepiratebay.org/user/StoneBoyTony/  
http://www. demonoid. me/files/?uid=3160987&seeded=2/

Enjoy and don't forget to SeeD